Coordinates
version=1
nRows=14
nColumns=63
inDegrees=yes

Units are S.I. units (second, meters, Newtons, ...)
If the header above contains a line with 'inDegrees', this indicates whether rotational values are in degrees (yes) or radians (no).

endheader
time	pelvis_tilt	pelvis_list	pelvis_rotation	pelvis_tx	pelvis_ty	pelvis_tz	hip_flexion_r	hip_adduction_r	hip_rotation_r	knee_angle_r	knee_angle_r_beta	ankle_angle_r	subtalar_angle_r	mtp_angle_r	hip_flexion_l	hip_adduction_l	hip_rotation_l	knee_angle_l	knee_angle_l_beta	ankle_angle_l	subtalar_angle_l	mtp_angle_l	L5_S1_Flex_Ext	L5_S1_Lat_Bending	L5_S1_axial_rotation	L4_L5_Flex_Ext	L4_L5_Lat_Bending	L4_L5_axial_rotation	L3_L4_Flex_Ext	L3_L4_Lat_Bending	L3_L4_axial_rotation	L2_L3_Flex_Ext	L2_L3_Lat_Bending	L2_L3_axial_rotation	L1_L2_Flex_Ext	L1_L2_Lat_Bending	L1_L2_axial_rotation	L1_T12_Flex_Ext	L1_T12_Lat_Bending	L1_T12_axial_rotation	Abs_r3	Abs_r2	Abs_r1	Abs_t1	Abs_t2	neck_flexion	neck_bending	neck_rotation	arm_flex_r	arm_add_r	arm_rot_r	elbow_flex_r	pro_sup_r	wrist_flex_r	wrist_dev_r	arm_flex_l	arm_add_l	arm_rot_l	elbow_flex_l	pro_sup_l	wrist_flex_l	wrist_dev_l
2.033333	-2.270881	3.565127	95.640906	0.262466	0.785571	0.655140	-3.868970	-2.969169	-12.883423	9.625942	0.168004	33.948104	15.383786	0.000000	-1.552882	1.539134	7.647860	8.467619	0.147788	32.099927	4.787896	0.000000	-0.068866	-0.370258	-2.909636	-0.127890	-0.492444	-3.091488	-0.113139	-0.900246	-3.091488	-0.078707	-0.900246	-2.545932	-0.063949	-0.755031	-2.364079	-0.039350	-0.573530	-2.182227	-0.491900	-4.188436	-16.182523	0.000000	0.000000	-0.505179	30.811629	-26.998884	61.497285	-1.219999	0.073174	129.698320	87.740325	-11.687401	33.543331	20.566590	-6.953605	170.618617	0.220681	5.609745	-25.813534	-8.691643
2.050000	-2.173567	3.488080	94.920709	0.263655	0.785462	0.655376	-3.663180	-2.903299	-12.113508	9.564170	0.166926	33.785296	15.349127	0.000000	-1.503496	1.484676	7.340090	8.483577	0.148066	32.052349	4.207955	0.000000	-0.063824	-0.371425	-2.839123	-0.118528	-0.493995	-3.016568	-0.104857	-0.903082	-3.016568	-0.072945	-0.903082	-2.484233	-0.059267	-0.757409	-2.306788	-0.036469	-0.575337	-2.129342	-0.455890	-4.201630	-15.790352	0.000000	0.000000	-0.958198	31.336622	-26.601378	61.218601	-1.659148	0.144068	130.111186	87.735835	-11.354350	33.553242	20.494992	-6.795510	168.140537	0.227587	3.955411	-25.485218	-9.757516
2.066667	-2.077046	3.422440	94.210770	0.264890	0.785400	0.655715	-3.458964	-2.834082	-11.348455	9.513693	0.166045	33.649742	15.318950	0.000000	-1.441864	1.416007	6.931671	8.544654	0.149132	32.025891	3.784318	0.000000	-0.062155	-0.375572	-2.769031	-0.115429	-0.499510	-2.942095	-0.102115	-0.913165	-2.942095	-0.071037	-0.913165	-2.422902	-0.057717	-0.765866	-2.249838	-0.035516	-0.581761	-2.076773	-0.443969	-4.248542	-15.400519	0.000000	0.000000	-1.558362	31.815059	-26.107427	60.976903	-2.115226	-0.013393	130.642321	87.773157	-10.483413	33.585094	20.430856	-6.667464	165.690655	0.234684	2.473658	-24.934635	-10.945358
2.083333	-1.968791	3.368055	93.559354	0.266097	0.785391	0.656118	-3.270827	-2.742357	-10.620456	9.459646	0.165102	33.527155	15.264830	0.000000	-1.365552	1.327295	6.585335	8.647012	0.150919	31.999922	3.377112	0.000000	-0.063008	-0.380890	-2.712037	-0.117012	-0.506584	-2.881539	-0.103516	-0.926097	-2.881539	-0.072012	-0.926097	-2.373032	-0.058509	-0.776712	-2.203530	-0.036003	-0.589999	-2.034028	-0.450059	-4.308709	-15.083536	0.000000	0.000000	-2.339796	32.175946	-25.528761	60.793091	-2.542598	-0.418391	131.266785	87.854744	-8.961787	33.638250	20.362282	-6.568400	163.195689	0.241548	1.494049	-24.261094	-12.199027
2.100000	-1.844790	3.315507	92.988430	0.267244	0.785410	0.656551	-3.093878	-2.625996	-9.962358	9.405702	0.164160	33.418951	15.205556	0.000000	-1.267907	1.208946	6.245761	8.779668	0.153234	31.986728	3.091926	0.000000	-0.064428	-0.386098	-2.668387	-0.119650	-0.513510	-2.835161	-0.105849	-0.938759	-2.835161	-0.073635	-0.938759	-2.334838	-0.059828	-0.787331	-2.168064	-0.036814	-0.598066	-2.001290	-0.460205	-4.367619	-14.840767	0.000000	0.000000	-3.257875	32.373847	-24.891835	60.690012	-2.940564	-1.016897	131.972326	87.984906	-7.013322	33.709514	20.300498	-6.488332	160.901783	0.247729	0.863497	-23.531863	-13.496569
2.116667	-1.677513	3.270256	92.521150	0.268232	0.785463	0.656983	-2.945425	-2.453068	-9.384329	9.329035	0.162822	33.306490	15.116293	0.000000	-1.151127	1.038517	5.993531	8.942992	0.156085	31.994605	2.867443	0.000000	-0.067368	-0.386378	-2.636751	-0.125109	-0.513883	-2.801548	-0.110679	-0.939440	-2.801548	-0.076995	-0.939440	-2.307157	-0.062558	-0.787903	-2.142360	-0.038494	-0.598500	-1.977563	-0.481203	-4.370789	-14.664818	0.000000	0.000000	-4.267151	32.377249	-24.256896	60.688824	-3.323737	-1.730643	132.756033	88.151406	-4.912750	33.795656	20.267751	-6.387254	158.879737	0.252447	0.575727	-22.761666	-14.770810
2.133333	-1.462597	3.232046	92.141087	0.269035	0.785539	0.657393	-2.821906	-2.224806	-8.871941	9.240448	0.161276	33.193717	15.002928	0.000000	-1.030100	0.816203	5.834773	9.111932	0.159033	32.017517	2.689334	0.000000	-0.070679	-0.379060	-2.610776	-0.131259	-0.504150	-2.773950	-0.116119	-0.921647	-2.773950	-0.080780	-0.921647	-2.284429	-0.065633	-0.772980	-2.121256	-0.040386	-0.587164	-1.958082	-0.504857	-4.288005	-14.520355	0.000000	0.000000	-5.309010	32.200933	-23.565691	60.809639	-3.676615	-2.465473	133.568903	88.347806	-2.880475	33.892195	20.277544	-6.241066	157.114558	0.255718	0.508658	-21.990642	-16.045234
2.150000	-1.192948	3.206221	91.847085	0.269605	0.785660	0.657760	-2.735202	-1.935781	-8.445017	9.131891	0.159382	33.065477	14.887654	0.000000	-0.919962	0.536900	5.754962	9.271140	0.161812	32.053143	2.570647	0.000000	-0.074199	-0.362392	-2.585469	-0.137794	-0.481982	-2.747061	-0.121901	-0.881121	-2.747061	-0.084802	-0.881121	-2.262285	-0.068901	-0.738991	-2.100694	-0.042397	-0.561346	-1.939102	-0.529994	-4.099455	-14.379603	0.000000	0.000000	-6.329663	31.872746	-22.835327	61.053570	-4.006853	-3.156468	134.368993	88.541919	-1.082615	33.995911	20.353225	-6.013954	155.618920	0.257510	0.698667	-21.295009	-17.182749
2.166667	-0.869642	3.202127	91.618960	0.269926	0.785836	0.658053	-2.691412	-1.592439	-8.093108	9.017372	0.157383	32.928500	14.777293	0.000000	-0.846475	0.209961	5.818756	9.397573	0.164019	32.085167	2.401286	0.000000	-0.077961	-0.335313	-2.556178	-0.144782	-0.445967	-2.715939	-0.128082	-0.815281	-2.715939	-0.089102	-0.815281	-2.236655	-0.072395	-0.683771	-2.076894	-0.044547	-0.519400	-1.917133	-0.556868	-3.793133	-14.216693	0.000000	0.000000	-7.349555	31.360714	-22.057744	61.417525	-4.319280	-3.693145	135.106694	88.690315	0.197095	34.104251	20.507363	-5.701408	154.339327	0.257870	0.796869	-20.646284	-18.395269
2.183333	-0.493841	3.219463	91.457213	0.269978	0.786078	0.658224	-2.701032	-1.196001	-7.819877	8.883607	0.155048	32.763315	14.683503	0.000000	-0.820236	-0.161315	6.042912	9.476989	0.165405	32.098395	2.140832	0.000000	-0.081311	-0.298160	-2.518090	-0.151002	-0.396552	-2.675471	-0.133586	-0.724946	-2.675471	-0.092930	-0.724946	-2.203329	-0.075505	-0.608007	-2.045948	-0.046461	-0.461849	-1.888567	-0.580795	-3.372843	-14.004861	0.000000	0.000000	-8.345298	30.688811	-21.272810	61.883816	-4.624961	-4.069525	135.748896	88.768738	0.980952	34.216445	20.756343	-5.265012	153.343008	0.256394	0.908136	-20.234716	-19.534701
2.200000	-0.096049	3.252694	91.335203	0.269910	0.786365	0.658163	-2.764815	-0.774315	-7.604944	8.733255	0.152424	32.577741	14.611376	0.000000	-0.866530	-0.551949	6.421299	9.466915	0.165229	32.067135	1.760092	0.000000	-0.083160	-0.256103	-2.472013	-0.154437	-0.340618	-2.626514	-0.136624	-0.622690	-2.626514	-0.095044	-0.622690	-2.163011	-0.077223	-0.522246	-2.008511	-0.047518	-0.396704	-1.854010	-0.594007	-2.897094	-13.748595	0.000000	0.000000	-9.336347	29.857129	-20.446367	62.432876	-4.870141	-4.244734	136.263125	88.769814	1.218009	34.325913	21.074279	-4.748018	152.820976	0.252671	0.945172	-20.714499	-20.594875
2.216667	0.313649	3.305349	91.290015	0.269728	0.786689	0.657803	-2.897760	-0.328195	-7.455583	8.555368	0.149319	32.368065	14.528527	0.000000	-0.992758	-0.957212	7.027849	9.355159	0.163278	31.975681	1.192419	0.000000	-0.083876	-0.210782	-2.427151	-0.155766	-0.280340	-2.578848	-0.137800	-0.512495	-2.578848	-0.095862	-0.512495	-2.123757	-0.077887	-0.429826	-1.972060	-0.047927	-0.326501	-1.820363	-0.599117	-2.384407	-13.499087	0.000000	0.000000	-10.330768	28.870843	-19.509885	63.061039	-5.033003	-4.181609	136.618634	88.706248	0.879528	34.421556	21.469911	-4.170222	152.919324	0.246578	0.947030	-22.295243	-21.465899
2.233333	0.732924	3.377165	91.322261	0.269427	0.787071	0.657100	-3.106253	0.138652	-7.390629	8.339162	0.145546	32.126185	14.462509	0.000000	-1.200398	-1.377835	7.817264	9.140954	0.159540	31.831276	0.475795	0.000000	-0.083498	-0.162760	-2.378171	-0.155064	-0.216471	-2.526806	-0.137179	-0.395735	-2.526806	-0.095430	-0.395735	-2.080899	-0.077536	-0.331901	-1.932264	-0.047711	-0.252116	-1.783628	-0.596418	-1.841177	-13.226672	0.000000	0.000000	-11.318106	27.760695	-18.511352	63.760695	-5.135719	-3.910077	136.817237	88.602081	0.090441	34.487318	21.972481	-3.515219	153.776241	0.237510	0.942159	-24.907748	-22.087016
2.250000	1.180668	3.469132	91.385364	0.269007	0.787515	0.656049	-3.377232	0.640389	-7.328628	8.092457	0.141240	31.838057	14.373775	0.000000	-1.500030	-1.827796	8.767852	8.805603	0.153687	31.633651	-0.431700	0.000000	-0.081955	-0.108595	-2.320139	-0.152199	-0.144431	-2.465148	-0.134644	-0.264038	-2.465148	-0.093666	-0.264038	-2.030122	-0.076103	-0.221447	-1.885113	-0.046829	-0.168214	-1.740104	-0.585397	-1.228447	-12.903918	0.000000	0.000000	-12.280009	26.531979	-17.411976	64.548525	-5.181593	-3.393240	136.832402	88.471238	-1.164221	34.503969	22.572484	-2.774227	155.093682	0.226515	0.951996	-28.371833	-22.631462
